<svg width="50" height="51" viewBox="0 0 50 51" xmlns="http://www.w3.org/2000/svg"><title>F2C13166-6C36-4425-BD4D-190986E7523A</title><path d="M34.922 44.53c-.015-.319-.048-.556-.1-.71 0 .109.018.254.055.436.021.107.036.198.045.274zm-.001-38.022c-.01.074-.024.161-.044.263a2.292 2.292 0 0 0-.055.41c.05-.138.083-.362.099-.673zm.009 38.248a8.131 8.131 0 0 0-.008-.226 1.195 1.195 0 0 1 .008.226c-.035.777-.528 1.166-1.478 1.166-1.078 0-1.616-.519-1.616-1.556 0-.255.009-.474.027-.656.2-1.929-.785-2.894-2.959-2.894-.603 0-1.169.1-1.699.3.42-1.11 1.809-1.665 4.165-1.665 1.607 0 2.986.373 4.137 1.12 1.333.873 2 2.066 2 3.576 0 1.347-.512 2.44-1.534 3.276-.95.801-2.11 1.202-3.48 1.202a8.982 8.982 0 0 1-3.561-.737c0 .873-.33 1.61-.987 2.211-.657.6-1.424.901-2.301.901-.22 0-.43-.027-.63-.082-.22.055-.439.082-.658.082-.877 0-1.64-.305-2.288-.915-.648-.61-.972-1.342-.972-2.197-.968.491-2.155.737-3.562.737-1.388 0-2.557-.392-3.507-1.174-1.004-.856-1.506-1.957-1.506-3.304 0-1.51.666-2.703 2-3.576 1.15-.747 2.52-1.12 4.11-1.12 2.355 0 3.743.555 4.164 1.666-.512-.2-1.069-.3-1.672-.3-2.155 0-3.15.964-2.986 2.893.11 1.475-.374 2.212-1.452 2.212-.986 0-1.48-.419-1.48-1.256 0-.273.037-.555.11-.846-.164.418-.247.8-.247 1.146 0 1.329 1.069 1.993 3.206 1.993 1.607 0 2.95-.523 4.027-1.57 1.078-1.046 1.617-2.37 1.617-3.972 0-1.583-.74-2.821-2.22-3.713-1.241-.728-2.712-1.092-4.41-1.092-1.662 0-3.142.328-4.439.983-1.607.837-2.41 2.011-2.41 3.522 0 1.092.447 1.956 1.342 2.593-.146.073-.338.11-.576.11-.675 0-1.356-.214-2.04-.642-.686-.428-1.165-.942-1.439-1.543a3.156 3.156 0 0 1-1.78.546c-1.28 0-1.919-.491-1.919-1.474 0-.691.375-1.32 1.124-1.884.091-.072.173-.109.246-.109-1.57-.327-2.876-1.283-3.918-2.867C.493 34.373 0 32.8 0 31.124c0-2.366.986-4.24 2.959-5.624C.986 24.117 0 22.251 0 19.903c0-1.674.493-3.249 1.48-4.723 1.04-1.584 2.346-2.54 3.917-2.867a.934.934 0 0 1-.246-.109c-.75-.564-1.124-1.192-1.124-1.884 0-.983.64-1.474 1.918-1.474.64 0 1.233.182 1.781.546.274-.619.753-1.142 1.438-1.57.685-.428 1.366-.642 2.041-.642.238 0 .43.037.576.11-.895.637-1.343 1.51-1.343 2.62 0 1.511.804 2.676 2.411 3.495 1.297.655 2.777.983 4.439.983 1.735 0 3.214-.364 4.438-1.092 1.461-.874 2.192-2.111 2.192-3.713 0-1.602-.539-2.921-1.617-3.959-1.077-1.037-2.42-1.556-4.027-1.556-2.137 0-3.206.655-3.206 1.966 0 .346.083.728.247 1.146a3.157 3.157 0 0 1-.11-.819c0-.837.494-1.256 1.48-1.256 1.078 0 1.562.729 1.452 2.185-.164 1.929.831 2.894 2.986 2.894.603 0 1.16-.091 1.672-.273-.22.546-.832.973-1.836 1.283a7.691 7.691 0 0 1-2.329.382c-1.57 0-2.94-.382-4.11-1.147-1.333-.873-2-2.056-2-3.549 0-1.347.503-2.448 1.507-3.303.95-.801 2.12-1.202 3.507-1.202 1.407 0 2.594.246 3.562.737 0-.855.329-1.588.986-2.197C22.74.305 23.498 0 24.356 0c.22 0 .439.027.658.082.2-.055.41-.082.63-.082.877 0 1.644.305 2.301.915.658.61.987 1.342.987 2.197a8.982 8.982 0 0 1 3.561-.737c1.37 0 2.539.4 3.507 1.202 1.005.855 1.507 1.956 1.507 3.303 0 1.493-.676 2.676-2.028 3.55-1.169.764-2.538 1.146-4.11 1.146a7.691 7.691 0 0 1-2.328-.382c-1.004-.31-1.616-.737-1.836-1.283.53.182 1.096.273 1.7.273 2.173 0 3.159-.965 2.958-2.894a6.362 6.362 0 0 1-.027-.628c0-1.038.538-1.557 1.616-1.557.948 0 1.44.387 1.477 1.16l.003.096c0 .04-.004.09-.011.147a8.128 8.128 0 0 0 .01-.474c0-1.31-1.059-1.966-3.178-1.966-1.607 0-2.95.519-4.027 1.556-1.078 1.038-1.616 2.357-1.616 3.959 0 1.638.748 2.885 2.246 3.74 1.224.71 2.722 1.065 4.493 1.065 1.626 0 3.078-.337 4.356-1.01 1.59-.82 2.384-1.975 2.384-3.467 0-1.11-.447-1.984-1.342-2.621.164-.073.365-.11.602-.11.694 0 1.375.214 2.041.642.667.428 1.128.951 1.384 1.57a3.376 3.376 0 0 1 1.863-.546c1.242 0 1.863.51 1.863 1.529 0 .691-.384 1.301-1.15 1.829-.019.073-.101.11-.247.11 1.57.327 2.886 1.282 3.945 2.866.968 1.474 1.452 3.049 1.452 4.723 0 2.348-.977 4.214-2.932 5.597C49.023 26.883 50 28.758 50 31.124c0 1.675-.484 3.25-1.452 4.723-1.06 1.584-2.374 2.54-3.945 2.867.164 0 .246.037.246.11.767.509 1.151 1.119 1.151 1.829 0 1.019-.621 1.528-1.863 1.528a3.376 3.376 0 0 1-1.863-.546c-.256.62-.721 1.138-1.397 1.557-.676.418-1.352.628-2.028.628-.237 0-.438-.037-.602-.11.895-.637 1.342-1.501 1.342-2.593 0-1.493-.785-2.658-2.356-3.495-1.297-.673-2.758-1.01-4.384-1.01-1.735 0-3.223.355-4.465 1.065-1.516.873-2.274 2.12-2.274 3.74 0 1.602.538 2.926 1.616 3.972 1.078 1.047 2.42 1.57 4.027 1.57 2.12 0 3.179-.664 3.179-1.993l-.002-.21zM26.52 2.812c0-.855-.502-1.765-1.506-2.73-1.023.965-1.535 1.875-1.535 2.73 0 .364.512 1.574 1.535 3.631 1.004-2.057 1.507-3.267 1.507-3.63zm21.781 25.555c0-.856-.41-1.811-1.233-2.867.822-1.037 1.233-1.984 1.233-2.84 0-1.547-.392-2.775-1.178-3.685-.402-.473-1.132-1.02-2.191-1.638-.786-.455-1.179-.901-1.179-1.338 0-.82.357-1.229 1.069-1.229h.822c.237.037.575.255 1.014.656-.658-1.184-1.955-1.775-3.89-1.775-.695 0-2.16.437-4.398 1.31-2.238.874-4.078 1.31-5.52 1.31-3.672 0-6.284-1.046-7.836-3.139-1.553 2.093-4.165 3.14-7.836 3.14-1.443 0-3.26-.437-5.452-1.31-2.192-.874-3.644-1.311-4.356-1.311-2.028 0-3.37.591-4.028 1.775.439-.4.786-.62 1.042-.656h.821c.695 0 1.042.41 1.042 1.229 0 .437-.384.883-1.151 1.338-1.06.637-1.79 1.183-2.192 1.638-.785.91-1.178 2.138-1.178 3.686 0 .855.411 1.802 1.233 2.839-.822 1.056-1.233 2.011-1.233 2.867 0 1.547.393 2.775 1.178 3.685.347.4 1.078.938 2.192 1.611.767.455 1.15.91 1.15 1.365 0 .801-.346 1.202-1.04 1.202-.622 0-.895.009-.822.027-.256-.055-.603-.282-1.042-.683.658 1.184 2 1.775 4.028 1.775.712 0 2.169-.432 4.37-1.297 2.2-.864 4.013-1.297 5.438-1.297 3.671 0 6.283 1.038 7.836 3.113 1.552-2.075 4.164-3.113 7.835-3.113 1.425 0 3.26.433 5.507 1.297 2.247.865 3.717 1.297 4.411 1.297 1.936 0 3.233-.591 3.89-1.775-.438.4-.776.628-1.013.683-.037-.018-.31-.027-.822-.027-.712 0-1.069-.4-1.069-1.202 0-.436.393-.891 1.179-1.365 1.114-.655 1.844-1.192 2.191-1.61.786-.91 1.178-2.14 1.178-3.686zm-21.78 19.848c0-.382-.503-1.592-1.507-3.631-1.023 2.039-1.535 3.249-1.535 3.631 0 .837.512 1.738 1.535 2.703 1.004-.965 1.507-1.866 1.507-2.703z" fill="#313037" fill-rule="evenodd"/></svg>